HIERARCHY
ROOT SpineBase
{
  OFFSET 0.000000 0.000000 0.000000
  CHANNELS 6 Xposition Yposition Zposition Zrotation Xrotation Yrotation
  JOINT SpineMid
  {
    OFFSET 0.000000 27.242997 0.000000
    CHANNELS 3 Zrotation Xrotation Yrotation
    JOINT SpineShoulder
    {
      OFFSET -0.035256 20.076142 -0.669254
      CHANNELS 3 Zrotation Xrotation Yrotation
      JOINT Neck
      {
        OFFSET -0.012536 6.624489 -0.486012
        CHANNELS 3 Zrotation Xrotation Yrotation
        JOINT Head
        {
          OFFSET -2.697099 12.213377 -1.312934
          CHANNELS 3 Zrotation Xrotation Yrotation
          End Site
          {
            OFFSET 0 0 0
          }
        }
      }
      JOINT ShoulderLeft
      {
        OFFSET -12.542620 -2.557321 7.411422
        CHANNELS 3 Zrotation Xrotation Yrotation
        JOINT ElbowLeft
        {
          OFFSET -1.307274 -23.772202 2.539732
          CHANNELS 3 Zrotation Xrotation Yrotation
          JOINT WristLeft
          {
            OFFSET -7.073319 -3.817956 -16.902421
            CHANNELS 3 Zrotation Xrotation Yrotation
            JOINT HandLeft
            {
              OFFSET -0.019581 6.491689 -5.800163
              CHANNELS 3 Zrotation Xrotation Yrotation
              JOINT HandTipLeft
              {
                OFFSET -0.334433 -0.671998 -3.865273
                CHANNELS 3 Zrotation Xrotation Yrotation
                End Site
                {
                  OFFSET 0 0 0
                }
              }
              JOINT ThumbLeft
              {
                OFFSET -2.719780 0.521362 -3.836689
                CHANNELS 3 Zrotation Xrotation Yrotation
                End Site
                {
                  OFFSET 0 0 0
                }
              }
            }
          }
        }
      }
      JOINT ShoulderRight
      {
        OFFSET 10.353556 -3.908342 -11.186771
        CHANNELS 3 Zrotation Xrotation Yrotation
        JOINT ElbowRight
        {
          OFFSET 4.235343 -18.557403 -3.779135
          CHANNELS 3 Zrotation Xrotation Yrotation
          JOINT WristRight
          {
            OFFSET -20.075337 6.209976 -7.974296
            CHANNELS 3 Zrotation Xrotation Yrotation
            JOINT HandRight
            {
              OFFSET -6.998579 1.757334 -1.897307
              CHANNELS 3 Zrotation Xrotation Yrotation
              JOINT HandTipRight
              {
                OFFSET -6.114964 1.045019 -2.371586
                CHANNELS 3 Zrotation Xrotation Yrotation
                End Site
                {
                  OFFSET 0 0 0
                }
              }
              JOINT ThumbRight
              {
                OFFSET -1.990299 2.864113 -2.060478
                CHANNELS 3 Zrotation Xrotation Yrotation
                End Site
                {
                  OFFSET 0 0 0
                }
              }
            }
          }
        }
      }
    }
  }
  JOINT HipLeft
  {
    OFFSET -5.258026 -0.137444 1.596278
    CHANNELS 3 Zrotation Xrotation Yrotation
    JOINT KneeLeft
    {
      OFFSET 3.488464 -26.865109 7.647590
      CHANNELS 3 Zrotation Xrotation Yrotation
      JOINT AnkleLeft
      {
        OFFSET 9.577799 -35.079074 11.501498
        CHANNELS 3 Zrotation Xrotation Yrotation
        JOINT FootLeft
        {
          OFFSET -0.017149 -6.975877 -4.165220
          CHANNELS 3 Zrotation Xrotation Yrotation
          End Site
          {
            OFFSET 0 0 0
          }
        }
      }
    }
  }
  JOINT HipRight
  {
    OFFSET 4.969594 1.067252 -8.030151
    CHANNELS 3 Zrotation Xrotation Yrotation
    JOINT KneeRight
    {
      OFFSET 7.750554 -31.789383 7.363270
      CHANNELS 3 Zrotation Xrotation Yrotation
      JOINT AnkleRight
      {
        OFFSET 4.407703 -30.530844 7.996023
        CHANNELS 3 Zrotation Xrotation Yrotation
        JOINT FootRight
        {
          OFFSET -3.849920 -7.466731 2.643399
          CHANNELS 3 Zrotation Xrotation Yrotation
          End Site
          {
            OFFSET 0 0 0
          }
        }
      }
    }
  }
}
MOTION
Frames: 8
Frame Time: 0.033333
16.334575 69.758561 348.831584 0.387671 0.706564 40.955008 -0.755913 -0.279486 -40.959242 -0.000000 0.000000 0.000000 -3.324923 -0.356634 -0.449363 0.000000 0.000000 0.000000 -0.000000 0.000000 0.000000 -0.000000 0.000000 0.000000 -6.307303 34.919344 -4.930904 -0.726739 -12.163032 20.822282 0.000000 0.000000 0.000000 0.000000 0.000000 0.000000 -0.828522 -0.657414 0.013971 -1.279041 1.564518 0.260797 -1.162488 -1.287710 -5.973715 -9.089892 4.477455 14.580049 0.000000 0.000000 0.000000 0.000000 0.000000 0.000000 -1.712089 -1.671231 -41.138425 0.128058 0.836817 0.034616 -14.291355 15.692945 9.697192 0.000000 0.000000 0.000000 -2.765618 -2.677225 -41.756104 -2.197362 3.372145 0.356341 3.246775 4.090944 -1.374654 0.000000 0.000000 0.000000
16.316533 69.825313 348.834979 0.393233 0.719062 40.988791 -0.768475 -0.284825 -40.993169 -0.000000 0.000000 0.000000 -3.513399 -0.668290 -0.549257 0.000000 0.000000 0.000000 -0.000000 0.000000 0.000000 -0.000000 0.000000 0.000000 -6.209704 34.210875 -4.872951 0.821346 -10.776101 16.535193 0.000000 0.000000 0.000000 0.000000 0.000000 0.000000 -1.154829 -0.497982 0.116883 -1.003583 1.388858 0.015681 -1.503347 -1.161888 -5.928442 -9.175013 4.523835 15.537133 0.000000 0.000000 0.000000 0.000000 0.000000 0.000000 -1.653232 -1.624576 -41.153817 0.063336 0.818807 0.023092 -13.734218 14.918289 9.281677 0.000000 0.000000 0.000000 -2.825850 -2.756985 -41.810397 -2.126052 4.031496 0.490474 1.007135 7.286528 -4.148641 0.000000 0.000000 0.000000
16.311232 69.849528 348.828599 0.413992 0.742485 40.946087 -0.031019 0.052544 -40.935989 -0.356298 -0.761763 -0.015580 -3.722993 -0.979811 -0.652663 0.000000 0.000000 0.000000 -0.000000 0.000000 0.000000 -0.000000 0.000000 0.000000 -5.326818 28.838330 -4.287318 0.904262 -5.140284 11.977320 0.000000 0.000000 0.000000 0.000000 0.000000 0.000000 -0.998987 -0.315062 0.129120 -0.986598 1.099496 -0.135000 -1.577356 -1.042693 -5.578647 -8.920113 4.515978 16.286130 0.000000 0.000000 0.000000 0.000000 0.000000 0.000000 -1.681668 -1.635226 -41.110627 0.204429 0.827601 0.068257 -9.475909 9.867771 6.008664 0.000000 0.000000 0.000000 -2.960926 -2.899471 -41.812868 -1.837458 5.196291 0.758239 -1.868412 6.970567 -5.500964 0.000000 0.000000 0.000000
16.298525 69.868198 348.825676 0.423231 0.757099 40.948058 -0.022785 0.037432 -40.937099 0.225206 -0.158294 0.033969 -4.515241 -1.820577 -0.824655 0.000000 0.000000 0.000000 -0.607223 -0.611699 -0.048930 -0.000000 0.000000 0.000000 -3.524041 18.417145 -2.948981 -0.468318 5.184211 7.571431 0.000000 0.000000 0.000000 0.000000 0.000000 0.000000 -2.044981 -0.286979 0.307296 -0.615809 0.463849 -0.477690 -1.257201 -1.014311 -4.985046 -9.118173 4.576035 16.606015 0.000000 0.000000 0.000000 0.000000 0.000000 0.000000 -1.701892 -1.642968 -41.113774 0.281615 0.828414 0.091345 -6.934493 6.787724 4.169100 0.000000 0.000000 0.000000 -3.318520 -3.376211 -41.962111 -1.787033 7.400991 1.196146 -3.189167 4.335360 -5.732712 0.000000 0.000000 0.000000
16.262124 69.889956 348.833614 0.381547 0.743633 40.966147 -0.014435 0.031559 -40.955873 0.239956 -0.168547 0.033869 -4.558786 -1.892207 -0.853674 0.000000 0.000000 0.000000 -0.590411 -0.589032 -0.047449 -0.000000 0.000000 0.000000 -2.156413 9.487430 -1.856911 -1.674052 13.948543 5.606334 0.000000 0.000000 0.000000 0.000000 0.000000 0.000000 -2.458908 0.046827 0.470474 -0.393113 0.212663 -0.720802 -0.505181 -0.972725 -3.703110 -10.099500 4.761705 16.051009 0.000000 0.000000 0.000000 0.000000 0.000000 0.000000 -1.583477 -1.655261 -41.107340 0.249515 0.751049 0.070730 -9.848814 9.250703 6.141865 0.000000 0.000000 0.000000 -3.120666 -3.353038 -41.920890 -2.554319 5.757223 0.772499 0.079237 11.366671 -7.361593 0.000000 0.000000 0.000000
16.216354 69.881709 348.841619 0.328666 0.737265 40.791728 0.009721 0.038531 -40.782341 0.247377 -0.165539 0.032875 -4.601378 -2.006212 -0.887044 0.000000 0.000000 0.000000 -0.558715 -0.606872 -0.045081 -0.000000 0.000000 0.000000 -2.245733 7.022919 -1.954843 -1.661787 14.879463 6.268757 0.000000 0.000000 0.000000 0.000000 0.000000 0.000000 -2.535808 0.088448 0.508587 -0.142880 0.048928 -0.914604 -0.179544 -0.749420 -2.401626 -10.724603 4.866529 14.690683 0.000000 0.000000 0.000000 0.000000 0.000000 0.000000 -1.482750 -1.766728 -40.910493 0.124867 0.763807 0.035635 -4.926825 3.244006 2.827490 0.000000 0.000000 0.000000 -2.562786 -2.810352 -41.536652 -2.034083 3.845291 0.458827 -1.642552 12.264458 -7.441154 0.000000 0.000000 0.000000
16.161434 69.909908 348.871237 0.268723 0.717175 40.646888 0.030638 0.055250 -40.638906 -0.256113 -0.779008 -0.011644 -4.101308 -1.454656 -0.819766 0.000000 0.000000 0.000000 -0.000000 0.000000 0.000000 -0.000000 0.000000 0.000000 -2.020576 7.885521 -1.750162 -1.864346 15.194277 5.732666 0.000000 0.000000 0.000000 0.000000 0.000000 0.000000 -2.119821 0.634272 0.590059 0.107832 0.014174 -1.094000 -0.301334 -0.624352 -2.100770 -12.014850 5.048899 11.063408 0.000000 0.000000 0.000000 0.000000 0.000000 0.000000 -1.282251 -1.813861 -40.720166 -0.171007 0.716327 -0.053113 -8.937852 10.476113 5.790084 0.000000 0.000000 0.000000 -2.256352 -2.599156 -41.294261 -1.850484 3.210661 0.353235 -1.638246 9.877550 -5.988283 0.000000 0.000000 0.000000
16.121472 69.938198 348.898374 0.225493 0.706012 40.533618 0.035691 0.075536 -40.527157 -0.203639 -0.786587 -0.009566 -4.108770 -1.453806 -0.820463 0.000000 0.000000 0.000000 -0.000000 0.000000 0.000000 -0.000000 0.000000 0.000000 -2.990314 13.819879 -2.543219 -2.869916 8.680362 12.123706 0.000000 0.000000 0.000000 0.000000 0.000000 0.000000 -2.017925 0.403570 0.511886 0.076320 0.190431 -1.111369 -0.254511 -0.584337 -1.923300 -13.170025 5.316560 9.874286 0.000000 0.000000 0.000000 0.000000 0.000000 0.000000 -1.131016 -1.825659 -40.573331 -0.422222 0.592000 -0.150667 -15.042430 18.176770 10.559257 0.000000 0.000000 0.000000 -2.066731 -2.455298 -41.121780 -1.782863 2.953658 0.300350 -0.313068 5.411846 -3.291723 0.000000 0.000000 0.000000
